<svg width="15" height="17" viewBox="0 0 15 17" fill="none" xmlns="http://www.w3.org/2000/svg">
<path d="M7.49935 2.72607C4.27734 2.72607 1.66602 5.3374 1.66602 8.55941C1.66602 11.7814 4.27734 14.3927 7.49935 14.3927C10.7214 14.3927 13.3327 11.7814 13.3327 8.55941C13.3327 5.3374 10.7214 2.72607 7.49935 2.72607ZM7.49935 13.299C4.88574 13.299 2.75977 11.1728 2.75977 8.55941C2.75977 5.94603 4.88574 3.81982 7.49935 3.81982C10.113 3.81982 12.2389 5.94603 12.2389 8.55941C12.2389 11.1728 10.113 13.299 7.49935 13.299ZM9.82585 9.27034L8.04622 8.24268V5.46045C8.04622 5.15967 7.80241 4.91357 7.49935 4.91357C7.19629 4.91357 6.95247 5.15967 6.95247 5.46045V8.55941C6.95247 8.75487 7.05679 8.93538 7.22591 9.03291L9.27806 10.2178C9.36328 10.2479 9.43848 10.2912 9.55013 10.2912C9.73882 10.2912 9.92292 10.1933 10.0241 10.0177C10.1768 9.7557 10.0856 9.42074 9.82585 9.27034Z" fill="#156635"/>
</svg>
