<svg width="17" height="17" viewBox="0 0 17 17" fill="none" xmlns="http://www.w3.org/2000/svg">
<rect x="0.527344" y="0.0656738" width="16" height="16" rx="8" fill="#1F74AD"/>
<path d="M10.9883 10.1282V11.0657H6.22266V10.26L8.53711 7.7356C8.79102 7.44914 8.99121 7.20174 9.1377 6.99341C9.28418 6.78507 9.38672 6.5979 9.44531 6.43188C9.50716 6.26261 9.53809 6.09823 9.53809 5.93872C9.53809 5.71411 9.49577 5.51717 9.41113 5.3479C9.32975 5.17537 9.20931 5.04028 9.0498 4.94263C8.8903 4.84172 8.69661 4.79126 8.46875 4.79126C8.20508 4.79126 7.98372 4.84823 7.80469 4.96216C7.62565 5.07609 7.49056 5.23397 7.39941 5.43579C7.30827 5.63436 7.2627 5.86222 7.2627 6.11938H6.08594C6.08594 5.70597 6.18034 5.32837 6.36914 4.98657C6.55794 4.64152 6.83138 4.36808 7.18945 4.16626C7.54753 3.96118 7.97884 3.85864 8.4834 3.85864C8.95866 3.85864 9.3623 3.9384 9.69434 4.0979C10.0264 4.25741 10.2786 4.48364 10.4512 4.77661C10.627 5.06958 10.7148 5.41626 10.7148 5.81665C10.7148 6.038 10.679 6.25773 10.6074 6.47583C10.5358 6.69393 10.4333 6.91203 10.2998 7.13013C10.1696 7.34497 10.015 7.56144 9.83594 7.77954C9.6569 7.99438 9.45996 8.21248 9.24512 8.43384L7.70703 10.1282H10.9883Z" fill="white"/>
</svg>
