<svg width="16" height="17" viewBox="0 0 16 17" fill="none" xmlns="http://www.w3.org/2000/svg">
<rect y="0.559326" width="16" height="16" rx="8" fill="#1F74AD"/>
<path d="M7.07715 7.47241H7.78027C8.05371 7.47241 8.27995 7.42521 8.45898 7.33081C8.64128 7.23641 8.77637 7.1062 8.86426 6.94019C8.95215 6.77417 8.99609 6.58374 8.99609 6.3689C8.99609 6.14429 8.9554 5.95223 8.87402 5.79272C8.7959 5.62996 8.67546 5.50464 8.5127 5.41675C8.35319 5.32886 8.14974 5.28491 7.90234 5.28491C7.69401 5.28491 7.50521 5.32723 7.33594 5.41187C7.16992 5.49325 7.03809 5.61043 6.94043 5.76343C6.84277 5.91317 6.79395 6.0922 6.79395 6.30054H5.6123C5.6123 5.92293 5.71159 5.58765 5.91016 5.29468C6.10872 5.00171 6.37891 4.77222 6.7207 4.6062C7.06576 4.43693 7.45312 4.35229 7.88281 4.35229C8.3418 4.35229 8.74219 4.42879 9.08398 4.58179C9.42904 4.73153 9.69759 4.95614 9.88965 5.25562C10.0817 5.55509 10.1777 5.92619 10.1777 6.3689C10.1777 6.57072 10.1305 6.7758 10.0361 6.98413C9.94173 7.19246 9.80176 7.38289 9.61621 7.55542C9.43066 7.72469 9.19954 7.86304 8.92285 7.97046C8.64616 8.07463 8.32552 8.12671 7.96094 8.12671H7.07715V7.47241ZM7.07715 8.39038V7.74585H7.96094C8.3776 7.74585 8.73242 7.79468 9.02539 7.89233C9.32161 7.98999 9.5625 8.12508 9.74805 8.29761C9.93359 8.46688 10.0687 8.66056 10.1533 8.87866C10.2412 9.09676 10.2852 9.32788 10.2852 9.57202C10.2852 9.90405 10.2249 10.2003 10.1045 10.4607C9.9873 10.7179 9.81966 10.936 9.60156 11.115C9.38346 11.294 9.12793 11.4291 8.83496 11.5203C8.54525 11.6114 8.22949 11.657 7.8877 11.657C7.58171 11.657 7.28874 11.6147 7.00879 11.53C6.72884 11.4454 6.47819 11.3201 6.25684 11.1541C6.03548 10.9848 5.8597 10.7748 5.72949 10.5242C5.60254 10.2703 5.53906 9.97729 5.53906 9.64526H6.71582C6.71582 9.85685 6.76465 10.044 6.8623 10.2068C6.96322 10.3663 7.10319 10.4916 7.28223 10.5828C7.46452 10.6739 7.67285 10.7195 7.90723 10.7195C8.15462 10.7195 8.36784 10.6755 8.54688 10.5876C8.72591 10.4998 8.86263 10.3695 8.95703 10.197C9.05469 10.0245 9.10352 9.81616 9.10352 9.57202C9.10352 9.29533 9.0498 9.07072 8.94238 8.89819C8.83496 8.72567 8.68197 8.59871 8.4834 8.51733C8.28483 8.4327 8.05046 8.39038 7.78027 8.39038H7.07715Z" fill="white"/>
</svg>
