<svg width="172" height="33" viewBox="0 0 172 33" fill="none" xmlns="http://www.w3.org/2000/svg">
<rect width="172" height="31.9744" transform="translate(0 0.439697)" fill="white"/>
<path d="M117.785 8.7836H112.344V5.31152H127.302V8.7836H121.776V25.0347H117.793V8.7836H117.785Z" fill="#1548D5"/>
<path d="M128.561 7.37058C128.561 6.14738 129.543 5.1521 130.886 5.1521C132.229 5.1521 133.211 6.15497 133.211 7.37058C133.211 8.58619 132.198 9.61945 130.886 9.61945C129.574 9.61945 128.561 8.61658 128.561 7.37058ZM129.006 11.4505H132.682V25.0349H129.006V11.4505Z" fill="#1548D5"/>
<path d="M135.375 11.4502H139.051V13.228H139.082C140.179 11.9213 141.661 11.2527 143.18 11.2527C144.976 11.2527 146.404 11.9213 147.217 13.3876H147.271C148.391 11.9745 150.103 11.2527 152.068 11.2527C155.015 11.2527 156.895 13.0001 156.895 17.1712V25.0346H153.219V18.0373C153.219 15.872 152.543 14.512 150.832 14.512C149.289 14.512 148.023 15.8188 148.023 18.2652V25.0422H144.347V18.0449C144.347 15.8796 143.618 14.5196 141.937 14.5196C140.256 14.5196 139.043 15.8264 139.043 18.2728V25.0498H135.367V11.4502H135.375Z" fill="#1548D5"/>
<path d="M171.907 19.4279H162.283C162.728 21.0689 164.048 22.0414 165.906 22.0414C167.448 22.0414 168.515 21.4032 169.244 20.5143L171.631 22.71C170.48 24.1839 168.715 25.2932 165.652 25.2932C161.447 25.2932 158.469 22.4897 158.469 18.235C158.469 13.9804 161.362 11.2605 165.43 11.2605C169.497 11.2605 171.999 14.1476 171.999 18.1211C171.999 18.5617 171.946 19.2075 171.915 19.4279H171.907ZM162.314 16.8143H168.346C167.978 15.3708 167.003 14.4287 165.399 14.4287C163.91 14.4287 162.736 15.2644 162.314 16.8143Z" fill="#1548D5"/>
<path d="M50.4551 5.31177H54.4153L60.5321 16.5333H60.5858L66.7026 5.31177H70.6628V25.035H66.7333V12.8409H66.6796L61.8214 21.3122H59.2657L54.4383 12.8105H54.3846V25.035H50.4551V5.31177Z" fill="#0076E6"/>
<path d="M72.9805 7.36277C72.9805 6.13956 73.9628 5.14429 75.3059 5.14429C76.649 5.14429 77.6391 6.14716 77.6391 7.36277C77.6391 8.57837 76.626 9.61164 75.3059 9.61164C73.9859 9.61164 72.9805 8.60876 72.9805 7.36277ZM73.4333 11.4502H77.1095V25.0346H73.4333V11.4502Z" fill="#0076E6"/>
<path d="M79.8046 11.4505H83.4808V13.1979H83.5345C84.632 11.9215 86.1976 11.2529 87.9091 11.2529C90.8255 11.2529 92.8747 12.8104 92.8747 16.9739V25.0273H89.1985V17.8856C89.1985 15.3024 88.2698 14.4971 86.5584 14.4971C84.7087 14.4971 83.4731 15.7735 83.4731 18.2199V25.0273H79.7969V11.4505H79.8046Z" fill="#0076E6"/>
<path d="M94.3924 18.2806C94.3924 14.1703 97.2014 11.2529 100.878 11.2529C102.558 11.2529 104.017 11.8607 105.03 13.0307H105.083V4.58984H108.729V25.0348H105.222V23.371H105.191C104.239 24.5942 102.804 25.2855 100.954 25.2855C97.163 25.2855 94.3848 22.482 94.3848 18.2882L94.3924 18.2806ZM105.222 18.311C105.222 16.1153 103.733 14.5046 101.63 14.5046C99.665 14.5046 98.1224 15.9786 98.1224 18.311C98.1224 20.4763 99.5806 22.0034 101.63 22.0034C103.679 22.0034 105.222 20.5295 105.222 18.311Z" fill="#0076E6"/>
<path d="M0.145821 26.4024C8.60344 34.4178 22.0113 34.4178 30.4689 26.4024C30.6608 26.22 30.6608 25.9237 30.4689 25.7338L27.1457 22.4517C20.6068 28.9248 10.0002 28.9248 3.45365 22.4517L0.138146 25.7414C-0.0460487 25.9237 -0.0460487 26.2276 0.138146 26.41L0.145821 26.4024Z" fill="#1548D5"/>
<path d="M18.4773 16.8126C18.6883 15.0796 17.4401 13.5054 15.6895 13.2966C13.9388 13.0878 12.3487 14.3234 12.1378 16.0565C11.9268 17.7895 13.175 19.3636 14.9256 19.5724C16.6763 19.7812 18.2664 18.5456 18.4773 16.8126Z" fill="#0076E6"/>
<path d="M30.4767 6.45125C22.0191 -1.56415 8.61128 -1.56415 0.153668 6.45125C-0.0382018 6.63359 -0.0382018 6.9299 0.153668 7.11983L3.47685 10.402C10.0158 3.92887 20.6223 3.92887 27.1689 10.402L30.4921 7.11983C30.6763 6.93749 30.6763 6.63359 30.4921 6.45125H30.4767Z" fill="#1548D5"/>
</svg>
